# xmcd
#
# Track frame offsets:
#	150
#	24590
#	69476
#	93971
#	126983
#	142031
#	155964
#	181319
#	185952
#	225909
#	254803
#
# Disc length: 3741 seconds
#
# Revision: 1
# Processed by: cddbd v1.5.2PL0 Copyright (c) Steve Scherf et al.
# Submitted via: audiograbber 1.83.01
#
DISCID=a30e9b0b
DTITLE=Grateful Dead - 79-10-31 Nassau Veterans Memorial Coliseum, Uniondale NY
DYEAR=1900
DGENRE=
TTITLE0=China Cat Sunflower
TTITLE1=I Know You Rider
TTITLE2=Cassidy
TTITLE3=Loser
TTITLE4="Take A Step Back"
TTITLE5=Me and My Uncle
TTITLE6=Big River
TTITLE7="Take A Step Back"
TTITLE8=Althea
TTITLE9=Lost Sailor
TTITLE10=Saint Of Circumstance
EXTD=
EXTT0=
EXTT1=
EXTT2=
EXTT3=
EXTT4=
EXTT5=
EXTT6=
EXTT7=
EXTT8=
EXTT9=
EXTT10=
PLAYORDER=
